<?xml version="1.0" encoding="UTF-8"?>
<svg id="Layer_2" data-name="Layer 2" xmlns="http://www.w3.org/2000/svg" viewBox="0 0 300 550">
  <defs>
    <style>
      .cls-1 {
        fill: #fff;
      }
    </style>
  </defs>
  <path class="cls-1" d="M167.23,149.35c-11.5-.2-10.64-6.69-11.72-40.21-.67-20.91-.17-35.27.31-43.13,5.1-3.15,8.61-9.74,8.75-17.6.18-10.36-6.21-17.99-15.19-18.14-8.98-.16-15.63,7.25-15.81,17.6-.14,7.86,3.14,14.56,8.13,17.89.2,7.87.21,22.25-1.19,43.11-2.25,33.47-1.61,39.98-13.11,39.78-11.5-.2-23.74-.66-29.04,1.99,0,0,32.13,9.68,35.27,34.68,14.52,4.1,23.29,19.4,23.29,19.4-.35-44.4,39.25-52.37,39.25-52.37-5.2-2.84-17.45-2.81-28.95-3.01ZM149.25,38.27c4.42.08,7.43,4,7.33,10-.1,6.01-3.29,11.82-7.71,11.74-4.42-.08-7.4-6-7.29-12,.1-6.01,3.25-9.82,7.67-9.74Z"/>
  <path class="cls-1" d="M157.99,214.9s-9.83-20.55-25.67-22.67c0,0-3.96,10.39-.22,23.88,23.68,12.85,27.48,25.28,27.48,25.28,0,0-5.25-10.14-1.59-26.49Z"/>
  <path class="cls-1" d="M130.58,259c.04,2.26.09,5.72.16,10.07,11.32,6,20.89,13.99,28.51,23.74l-.5-38.55c-4.96-21.58-25.01-27.57-25.01-27.57,3.71,16.77-3.54,10.31-3.16,32.31Z"/>
  <path class="cls-1" d="M100.5,449.93c-16.67,14.57-41.37,36.09-44,37.89-4,2.75-2.75,12-1.75,15.12s8.62,8,13.25,0c3.03-5.24,30.28-28.48,48.7-43.87-5.65-2.16-11.16-5.14-16.2-9.15Z"/>
  <path class="cls-1" d="M91.95,441.47c-1.29-1.59-2.53-3.26-3.7-5.06-1.84-2.84-3.45-5.87-4.82-9.07-14.33,6.91-32.8,15.75-36.67,17.24-6.5,2.5-6.75,18.75,6,17.75s19.75-9.75,27.75-14c2.64-1.4,6.91-4,11.44-6.85Z"/>
  <path class="cls-1" d="M127.72,462.32c-1.06,2.77-2.18,5.21-3.31,6.84-6.41,9.25-14.6,40.27-15.88,42.4-1.27,2.13-3.42,5.81-.38,7.18s3.41-.09,5.45.69c2.04.78,8.52.78,8.79-9.17.19-6.83,12.98-26.38,19.56-46.04-4.56-.26-9.37-.85-14.23-1.9Z"/>
  <path class="cls-1" d="M173.67,460.17c-5.79,2.04-11.94,3.35-18.33,3.91,2.57,9.34,5.38,19.42,6.38,22.57,2,6.33,6.5,27.83,13.67,27.33,7.17-.5,14.83-.67,11.5-9.83-2.04-5.62-8.4-27.13-13.21-43.98Z"/>
  <path class="cls-1" d="M194.85,448.1c-1.48,1.24-3,2.43-4.58,3.55-2.02,1.43-4.13,2.73-6.31,3.93,4.28,8.65,9.34,18.08,13.2,22.96,8.25,10.42,9.94,17.55,17.07,14.42,7.13-3.13,5.44-7.3.75-13.21-2.59-3.27-12.12-18.59-20.13-31.64Z"/>
  <path class="cls-1" d="M249.21,448.99c-7.17-4.33-16.67-10.5-22.67-14.67-2.8-1.94-8.21-6.42-13.18-10.65-2.84,6.12-6.44,11.72-10.7,16.68,13.24,7.63,30.01,16.62,33.71,19.41,5.67,4.27,11.17,11.23,13.67,13.06,2.5,1.83,7-6.83,7.5-15.17s-1.17-4.33-8.33-8.67Z"/>
  <path class="cls-1" d="M183.23,323.41s8.33,38.42-10.42,50.42c0,0,10.33-69.54-45.83-98.83,0,0,25.67,37.67-2,75.33-10.67-37.17-27.25-45.5-27.25-45.5,0,0,8.97,24.18-5.33,56.25-16.69,37.42-10.17,96.33,55.83,96.33s90-83,35-134ZM142.62,440.61c-26.53-5.38-15.82-33.55-12.37-42.59,3.46-9.04-1.76-16.9-1.76-16.9,11.27,2.33,14.02,14.66,14.02,14.66,1.71-24.07,20.5-28.04,20.5-28.04-16.07,22.98,1.39,32.19,5.04,46.04,3.65,13.84-7.51,30.45-25.43,26.82Z"/>
</svg>